# ProBuilder 5.2.4
# https://unity3d.com/unity/features/worldbuilding/probuilder
# 4/23/2025 10:07:50 AM

mtllib ./fancy_box.mtl
o fancy box

g fancy box
v -0.3986577 -3.892939 0.1709977
v -0.3986577 -3.292939 0.1709977
v -0.3486577 -3.892939 0.2576002
v -0.3486577 -3.292939 0.2576002
v -0.04865769 -3.892939 0.4308053
v -0.04865769 -3.292939 0.4308053
v 0.05134232 -3.892939 0.4308053
v 0.05134232 -3.292939 0.4308053
v 0.3513423 -3.892939 0.2576002
v 0.3513423 -3.292939 0.2576002
v 0.4013423 -3.892939 0.1709976
v 0.4013423 -3.292939 0.1709976
v 0.4013423 -3.892939 -0.1754125
v 0.4013423 -3.292939 -0.1754125
v 0.3513423 -3.892939 -0.262015
v 0.3513423 -3.292939 -0.262015
v 0.05134223 -3.892939 -0.4352201
v 0.05134223 -3.292939 -0.4352201
v -0.04865766 -3.892939 -0.4352201
v -0.04865766 -3.292939 -0.4352201
v -0.3486577 -3.892939 -0.262015
v -0.3486577 -3.292939 -0.262015
v -0.3986577 -3.892939 -0.1754125
v -0.3986577 -3.292939 -0.1754125
v -0.2986577 -4.092939 -0.002207398
v 0.001342297 -4.092939 -0.002207398
v -0.1486577 -4.092939 0.2576002
v -0.2986577 -3.092939 -0.002207398
v 0.001342297 -3.092939 -0.002207398
v -0.1486577 -3.092939 0.2576002
v 0.1513423 -4.092939 0.2576002
v 0.1513423 -3.092939 0.2576002
v 0.3013423 -4.092939 -0.002207425
v 0.3013423 -3.092939 -0.002207425
v 0.1513423 -4.092939 -0.262015
v 0.1513423 -3.092939 -0.262015
v -0.1486577 -4.092939 -0.262015
v -0.1486577 -3.092939 -0.262015

vt -0.05124052 -3.892939
vt -0.05124052 -3.292939
vt 0.04875953 -3.892939
vt 0.04875953 -3.292939
vt -0.04865772 -3.892939
vt -0.04865772 -3.292939
vt 0.05134229 -3.892939
vt 0.05134229 -3.292939
vt -0.04741719 -3.892939
vt -0.04741719 -3.292939
vt 0.05258282 -3.892939
vt 0.05258282 -3.292939
vt -0.05258282 -3.892939
vt -0.05258282 -3.292939
vt 0.04741724 -3.892939
vt 0.04741724 -3.292939
vt -0.2986577 -0.002207398
vt 0.001342297 -0.002207398
vt -0.1486577 0.2576002
vt 0.2986577 -0.002207398
vt -0.001342297 -0.002207398
vt 0.1486577 0.2576002
vt 0.1513423 0.2576002
vt -0.1513423 0.2576002
vt 0.3013423 -0.002207425
vt -0.3013423 -0.002207425
vt 0.1513423 -0.262015
vt -0.1513423 -0.262015
vt -0.1486577 -0.262015
vt 0.1486577 -0.262015
vt 0.1709977 -3.892939
vt 0.1709977 -3.292939
vt -0.1754124 -3.892939
vt -0.1754124 -3.292939
vt 2.506186 -0.8951226
vt 2.47083 -0.9886641
vt 2.789028 -0.8951226
vt 2.682962 -1.175747
vt 2.610353 0.9318423
vt 2.574998 1.025384
vt 2.398221 0.7447594
vt 2.292155 1.025384
vt -0.1731463 -3.292939
vt -0.1731463 -3.892939
vt 0.1732639 -3.292939
vt 0.1732639 -3.892939
vt 2.470831 0.9845768
vt 2.506186 0.8910353
vt 2.682963 1.17166
vt 2.789029 0.8910353
vt 2.574998 -1.029471
vt 2.610353 -0.9359294
vt 2.292155 -1.029471
vt 2.398221 -0.7488465
vt 0.05134232 -2.660757
vt -0.04865769 -2.660757
vt 0.1513423 -2.925332
vt -0.1486577 -2.925332
vt -0.04865769 -2.771256
vt 0.05134232 -2.771256
vt -0.1486577 -2.506681
vt 0.1513423 -2.506681
vt -0.170939 -3.292939
vt -0.170939 -3.892939
vt 0.1754712 -3.292939
vt 0.1754712 -3.892939
vt -2.468932 -0.9893815
vt -2.504288 -0.89584
vt -2.681064 -1.176464
vt -2.78713 -0.89584
vt -2.576896 1.024666
vt -2.612252 0.9311244
vt -2.294054 1.024666
vt -2.40012 0.7440416
vt -2.504287 0.8917532
vt -2.468932 0.9852946
vt -2.78713 0.8917532
vt -2.681064 1.172377
vt -2.612252 -0.9352125
vt -2.576896 -1.028754
vt -2.400119 -0.7481295
vt -2.294053 -1.028754
vt 0.04865766 -2.657867
vt -0.05134223 -2.657867
vt 0.1486577 -2.922442
vt -0.1513423 -2.922442
vt -0.05134223 -2.774147
vt 0.04865766 -2.774147
vt -0.1513423 -2.509572
vt 0.1486577 -2.509572
vt 0.1709977 -3.303666
vt -0.1754124 -3.303666
vt -0.002207373 -3.527272
vt 0.1709977 -3.12358
vt -0.1754124 -3.12358
vt -0.002207373 -2.899973
vt -0.1731463 -3.30422
vt 5.877751E-05 -3.527827
vt 0.1732639 -3.30422
vt -0.1731463 -3.123025
vt 5.877751E-05 -2.899418
vt 0.1732639 -3.123025
vt -0.1754713 -3.124734
vt 0.1709389 -3.124734
vt -0.00226619 -2.901128
vt -0.1754713 -3.30251
vt 0.1709389 -3.30251
vt -0.00226619 -3.526117
vt -0.170939 -3.30362
vt 0.002266137 -3.527227
vt 0.1754712 -3.30362
vt -0.170939 -3.123625
vt 0.002266137 -2.900018
vt 0.1754712 -3.123625
vt -0.1709977 -3.302465
vt 0.002207399 -3.526072
vt 0.1754125 -3.302465
vt -0.1709977 -3.12478
vt 0.002207399 -2.901173
vt 0.1754125 -3.12478
vt -0.1732638 -3.30191
vt -5.872308E-05 -3.525517
vt 0.1731464 -3.30191
vt -0.1732638 -3.125335
vt -5.872429E-05 -2.901728
vt 0.1731464 -3.125335

vn -0.8660254 0 0.5000001
vn 0 0 1
vn 0.8660255 0 0.4999999
vn 0.8660253 0 -0.5000002
vn 0 0 -1
vn -0.8660254 0 -0.4999999
vn 0 -1 0
vn 0 1 0
vn -1 0 -8.60319E-08
vn -0.6546538 -0.6546536 0.3779644
vn -0.6546537 0.6546536 0.3779645
vn -0.5 0 0.8660254
vn -0.5 0 -0.8660254
vn -0.6546539 -0.6546535 -0.3779645
vn -0.6546538 0.6546536 -0.3779644
vn 0 -0.6546536 0.755929
vn 0 0.6546536 0.7559291
vn 0.5000001 0 0.8660253
vn 0.6546538 -0.6546535 0.3779644
vn 0.6546538 0.6546536 0.3779644
vn 1 0 -8.60319E-08
vn 0.6546537 -0.6546536 -0.3779646
vn 0.6546537 0.6546536 -0.3779646
vn 0.5 0 -0.8660254
vn 0 -0.6546536 -0.7559291
vn 0 0.6546536 -0.7559291
vn -0.8944272 -0.4472134 -7.694927E-08
vn -0.8944272 0.4472134 -7.694927E-08
vn -0.4472136 -0.4472135 0.7745967
vn -0.4472136 0.4472135 0.7745967
vn -0.4472136 0.4472135 -0.7745968
vn -0.4472136 -0.4472135 -0.7745968
vn 0.4472137 -0.4472135 0.7745967
vn 0.4472137 0.4472135 0.7745966
vn 0.8944272 -0.4472134 -7.694927E-08
vn 0.8944272 0.4472134 -7.694927E-08
vn 0.4472136 -0.4472135 -0.7745968
vn 0.4472136 0.4472135 -0.7745967

usemtl ProBuilderDefault
f 25/17/7 26/18/7 27/19/7
f 27/19/7 26/18/7 31/23/7
f 31/23/7 26/18/7 33/25/7
f 33/25/7 26/18/7 35/27/7
f 35/27/7 26/18/7 37/29/7
f 37/29/7 26/18/7 25/17/7
f 30/22/8 29/21/8 28/20/8
f 32/24/8 29/21/8 30/22/8
f 34/26/8 29/21/8 32/24/8
f 36/28/8 29/21/8 34/26/8
f 38/30/8 29/21/8 36/28/8
f 28/20/8 29/21/8 38/30/8
f 1/91/27 23/92/27 25/93/27
f 28/96/28 24/95/28 2/94/28
f 3/97/29 27/98/29 5/99/29
f 6/102/30 30/101/30 4/100/30
f 20/103/31 22/104/31 38/105/31
f 37/108/32 21/107/32 19/106/32
f 7/109/33 31/110/33 9/111/33
f 10/114/34 32/113/34 8/112/34
f 11/115/35 33/116/35 13/117/35
f 14/120/36 34/119/36 12/118/36
f 15/121/37 35/122/37 17/123/37
f 18/126/38 36/125/38 16/124/38
f 4/4/1 2/2/1 1/1/1
f 1/1/1 3/3/1 4/4/1
f 8/8/2 6/6/2 5/5/2
f 5/5/2 7/7/2 8/8/2
f 12/12/3 10/10/3 9/9/3
f 9/9/3 11/11/3 12/12/3
f 16/8/4 14/6/4 13/5/4
f 13/5/4 15/7/4 16/8/4
f 20/4/5 18/2/5 17/1/5
f 17/1/5 19/3/5 20/4/5
f 24/16/6 22/14/6 21/13/6
f 21/13/6 23/15/6 24/16/6
f 23/33/9 1/31/9 2/32/9
f 2/32/9 24/34/9 23/33/9
f 27/37/10 3/35/10 1/36/10
f 1/36/10 25/38/10 27/37/10
f 28/41/11 2/39/11 4/40/11
f 4/40/11 30/42/11 28/41/11
f 6/45/12 4/43/12 3/44/12
f 3/44/12 5/46/12 6/45/12
f 22/32/13 20/34/13 19/33/13
f 19/33/13 21/31/13 22/32/13
f 25/49/14 23/47/14 21/48/14
f 21/48/14 37/50/14 25/49/14
f 38/53/15 22/51/15 24/52/15
f 24/52/15 28/54/15 38/53/15
f 31/57/16 7/55/16 5/56/16
f 5/56/16 27/58/16 31/57/16
f 30/61/17 6/59/17 8/60/17
f 8/60/17 32/62/17 30/61/17
f 10/65/18 8/63/18 7/64/18
f 7/64/18 9/66/18 10/65/18
f 33/69/19 11/67/19 9/68/19
f 9/68/19 31/70/19 33/69/19
f 32/73/20 10/71/20 12/72/20
f 12/72/20 34/74/20 32/73/20
f 14/65/21 12/63/21 11/64/21
f 11/64/21 13/66/21 14/65/21
f 35/77/22 15/75/22 13/76/22
f 13/76/22 33/78/22 35/77/22
f 34/81/23 14/79/23 16/80/23
f 16/80/23 36/82/23 34/81/23
f 18/45/24 16/43/24 15/44/24
f 15/44/24 17/46/24 18/45/24
f 37/85/25 19/83/25 17/84/25
f 17/84/25 35/86/25 37/85/25
f 36/89/26 18/87/26 20/88/26
f 20/88/26 38/90/26 36/89/26

